<?xml version="1.0" encoding="UTF-8" standalone="no"?>
<svg
   version="1.0"
   width="1581.5836"
   height="337.66147"
   preserveAspectRatio="xMidYMid meet"
   id="svg16"
   sodipodi:docname="Cmple_Solutions_Logo_Azure.svg"
   inkscape:export-filename="F:\OneDrive - Tshwane University of Technology\Documents\mple Solutions Logo\Cmple_Solutions_Logo_Azure.png"
   inkscape:export-xdpi="96"
   inkscape:export-ydpi="96"
   inkscape:version="1.1 (c68e22c387, 2021-05-23)"
   xmlns:inkscape="http://www.inkscape.org/namespaces/inkscape"
   xmlns:sodipodi="http://sodipodi.sourceforge.net/DTD/sodipodi-0.dtd"
   xmlns="http://www.w3.org/2000/svg"
   xmlns:svg="http://www.w3.org/2000/svg">
  <defs
     id="defs20" />
  <sodipodi:namedview
     id="namedview18"
     pagecolor="#ffffff"
     bordercolor="#666666"
     borderopacity="1.0"
     inkscape:pageshadow="2"
     inkscape:pageopacity="0.0"
     inkscape:pagecheckerboard="0"
     showgrid="false"
     inkscape:zoom="0.59073143"
     inkscape:cx="654.27363"
     inkscape:cy="168.43526"
     inkscape:window-width="1920"
     inkscape:window-height="1009"
     inkscape:window-x="-8"
     inkscape:window-y="-8"
     inkscape:window-maximized="1"
     inkscape:current-layer="g14" />
  <rect
     id="backgroundrect"
     width="100%"
     height="100%"
     x="-208.81645"
     y="0"
     fill="none"
     stroke="none" />
  <g
     class="currentLayer"
     id="g14"
     transform="translate(-208.81644)">
    <title
       id="title3">Layer 1</title>
    <path
       d="m 1141.3,1.1 c -28.6,2.2 -60,16.9 -82.6,38.8 -14.1,13.7 -28.3,34.6 -34.8,51.6 -6.9,17.9 -7.1,19.4 -8,61.5 -0.4,21.2 -0.8,71.2 -0.8,111.2 L 1015,337 h 20.4 20.4 l 0.5,-105.3 c 0.5,-116.9 0.1,-110 7.4,-127.9 14,-33.9 45.6,-57.9 81.5,-62 19.1,-2.1 43.1,2.6 59.6,11.8 21.3,12 39.1,33.2 46.9,55.9 6.2,18.3 6,44.8 -0.5,63.5 -7.6,21.9 -28.8,46.3 -49.2,56.5 -23.7,11.9 -57,13.7 -81,4.3 -12.2,-4.7 -25.5,-13.3 -35.2,-22.7 l -4.8,-4.5 v 26.9 l 0.1,27 6.2,2.9 c 21.1,9.8 31.7,13.5 44.5,15.7 7.6,1.2 40.9,1.2 49.9,-0.1 25.6,-3.6 58.9,-21.6 76.9,-41.4 16.7,-18.5 31.9,-46.1 35.8,-65 2.1,-10 3.1,-41.9 1.7,-53.2 -2.7,-21.9 -13.1,-45.3 -29.8,-67.2 -10.7,-14 -35.1,-32.3 -54.2,-40.7 -11.7,-5.2 -27.2,-9.2 -40.6,-10.5 -11.2,-1.1 -15.5,-1.1 -30.2,0.1 z"
       id="svg_2"
       fill="#007fff"
       style="fill-opacity:1;stroke:none;stroke-width:0.1" />
    <path
       d="M 1318,168.5 V 337 h 22 22 V 168.5 0 h -22 -22 z"
       id="svg_3"
       fill="#007fff"
       style="fill-opacity:1;stroke:none;stroke-width:0.1" />
    <path
       d="m 325.11644,4.1928166 c -49,9.3000004 -93.2,47.1000004 -109.4,93.5000004 -6.3,18.100003 -6.9,25.000003 -6.9,72.000003 0.1,26.3 0.5,45 1.3,51 4.2,32.8 28.8,71.3 58.6,91.6 17.3,11.8 41.4,22.1 57.1,24.4 10.7,1.5 44.7,1.2 54.5,-0.5 22.6,-3.9 47.7,-16.2 67.3,-32.9 l 4,-3.3 -6.9,-7.9 c -14,-16.1 -18.9,-21.4 -20,-21.4 -0.5,0 -5.1,2.7 -10,6.1 -16.2,11 -29.2,16.5 -45.9,19.4 -25.7,4.4 -52.6,-1.5 -74.3,-16.3 -17.7,-12.1 -32.5,-31.5 -40,-52.4 -2.5,-7 -2.6,-8.6 -3.4,-36.8 -0.4,-16.2 -0.5,-38.1 -0.2,-48.5 0.6,-18.9 0.6,-19.1 4.5,-30.2 5,-14.100003 11.9,-25.400003 22.2,-36.200003 15.1,-15.7 29.9,-24.7 49.2,-29.8 8.7,-2.2 11.9,-2.6 25.4,-2.6 13.5,0 16.8,0.4 25.4,2.6 13.9,3.7 29,11.6 43.7,23 l 3.7,2.8 12.3,-14.6 c 6.8,-8 12.7,-15.2 13.1,-16 0.6,-0.9 -2.3,-3.6 -10,-9.3 -17,-12.6 -34.9,-21.3 -53.3,-26.2000004 -7.2,-1.9 -11.7,-2.2 -31.4,-2.6 -17.2,-0.3 -24.9,0 -30.6,1.1 z"
       id="svg_4"
       fill="#007fff"
       style="fill-opacity:1;stroke:none;stroke-width:0.1" />
    <path
       d="m 592.5,1.7 c -8.2,1.2 -23.1,5.6 -31.3,9.2 -17.8,7.7 -30.9,16.8 -46.8,32.6 -17.2,16.9 -28.3,36.2 -36.6,63.5 -2.4,7.8 -2.7,20.5 -3.1,147.5 l -0.2,82.1 20.8,0.2 20.7,0.3 v -108 -108 l 2.6,-7.3 C 527.5,89 541.2,70.9 560.8,57.9 579.3,45.7 592.9,41.7 616,41.7 c 18.2,-0.1 25.9,1.6 40.7,8.7 26,12.5 43.9,33.3 54.2,62.9 l 3.1,8.9 V 228 c 0,58.2 0.3,106.5 0.6,107.4 0.5,1.4 3.3,1.6 21,1.6 H 756 v -106.9 -107 l 2.6,-8.3 c 5.6,-17.6 13,-29.6 26.8,-43.4 11.8,-11.8 17.5,-15.8 31.3,-21.8 15.2,-6.8 19.5,-7.6 39,-7.6 20.1,0 27.3,1.5 40.9,8.3 11.8,6 21.4,12.9 30.3,21.8 11.5,11.6 18.1,22.8 24.7,42.3 l 2.4,7 v 80 c 0,44.1 0.3,92.6 0.7,107.9 l 0.6,27.7 H 975.7 996 V 242.7 C 995.9,190.9 995.5,140.2 995,130 994.2,112.8 993.9,110.8 990.7,100.8 984.3,81.4 973,62.1 958.8,46 942.1,27.2 915.2,10.8 890.2,4.4 882.1,2.2 877.4,1.7 861.9,1.3 849.7,0.9 839.8,1.2 833.4,2 c -31.7,4 -66.7,24.7 -89.2,52.8 -4.2,5.3 -8.1,10 -8.6,10.4 -0.5,0.3 -3.7,-3 -7.1,-7.5 C 708.2,30.8 680.4,12.7 645.9,3.9 638.9,2.1 634,1.7 616.5,1.5 605,1.3 594.2,1.4 592.5,1.7 Z"
       id="svg_5"
       fill="#007fff"
       style="fill-opacity:1;stroke:none;stroke-width:0.1" />
    <path
       d="m 1663.9,2.5 c -49,9.3 -93.2,47.1 -109.4,93.5 -6.3,18.1 -6.9,25 -6.9,72 0.1,26.3 0.5,45 1.3,51 4.2,32.8 28.8,71.3 58.6,91.6 17.3,11.8 41.4,22.1 57.1,24.4 10.7,1.5 44.7,1.2 54.5,-0.5 22.6,-3.9 47.7,-16.2 67.3,-32.9 l 4,-3.3 -6.9,-7.9 c -14,-16.1 -18.9,-21.4 -20,-21.4 -0.5,0 -5.1,2.7 -10,6.1 -26,17.7 -52.5,24.2 -79.6,19.4 -37.2,-6.5 -67.2,-32 -80.7,-68.7 l -2.7,-7.3 -0.3,-48.1 -0.3,-48 4.1,-11.6 c 5.2,-14.6 12.1,-25.8 22.4,-36.7 15.1,-15.7 29.9,-24.7 49.2,-29.7 8.4,-2.3 12,-2.7 24.4,-2.7 16.8,0 26,1.6 39,7 10.3,4.2 15.1,7 25.5,14.5 4.4,3.2 8.4,5.9 8.9,5.9 0.5,0.1 6.6,-6.6 13.7,-14.7 l 12.8,-14.9 -4.7,-4.3 c -5.5,-5 -20.3,-15.2 -27.4,-18.8 -8,-4.1 -21.4,-9.2 -31.2,-12 -8.3,-2.4 -11,-2.6 -32.1,-3 -17.2,-0.3 -24.9,0 -30.6,1.1 z"
       id="svg_6"
       fill="#007fff"
       style="fill-opacity:1;stroke:none;stroke-width:0.1" />
    <path
       d="M 1614,196.5 V 217 h 76.5 76.5 V 196.5 176 h -76.5 -76.5 z"
       id="svg_7"
       fill="#007fff"
       style="fill-opacity:1;stroke:none;stroke-width:0.1" />
    <path
       d="M 1387,314.5 V 337 h 70.5 70.5 V 314.5 292 h -70.5 -70.5 z"
       id="svg_9"
       fill="#007fff"
       style="fill-opacity:1;stroke:none;stroke-width:0.1" />
  </g>
</svg>
